<svg version="1.1" id="Layer_1" xmlns="http://www.w3.org/2000/svg" xmlns:xlink="http://www.w3.org/1999/xlink" x="0px" y="0px"
	 width="100%" viewBox="0 0 88 94" enable-background="new 0 0 88 94" xml:space="preserve">
<path fill="#FEFEFD" opacity="1.000000" stroke="none" 
	d="
M52.000000,95.000000 
	C34.666668,95.000000 17.833340,95.000000 1.000007,95.000000 
	C1.000005,63.666676 1.000005,32.333351 1.000002,1.000019 
	C30.333321,1.000013 59.666641,1.000013 88.999969,1.000006 
	C88.999985,32.333313 88.999985,63.666626 88.999992,94.999969 
	C76.833336,95.000000 64.666664,95.000000 52.000000,95.000000 
M32.616737,14.995055 
	C29.246662,15.720022 23.822680,12.676811 23.803421,19.616903 
	C23.755329,36.948475 23.802748,54.280300 23.774977,71.611961 
	C23.770472,74.423058 24.833681,76.040108 27.846102,76.010651 
	C34.510254,75.945496 41.199116,76.254128 47.832027,75.775131 
	C54.029053,75.327614 60.163681,73.722000 64.107071,68.367889 
	C70.841675,59.224041 68.489212,47.232624 56.878532,42.545036 
	C63.055496,38.054558 65.212463,33.242722 63.700321,26.817747 
	C62.130150,20.146246 57.478603,16.681013 50.987667,15.936930 
	C45.226524,15.276505 39.388931,15.282968 32.616737,14.995055 
z"/>
<path fill="#020306" opacity="1.000000" stroke="none" 
	d="
M33.100914,14.995055 
	C39.388931,15.282968 45.226524,15.276505 50.987667,15.936930 
	C57.478603,16.681013 62.130150,20.146246 63.700321,26.817747 
	C65.212463,33.242722 63.055496,38.054558 56.878532,42.545036 
	C68.489212,47.232624 70.841675,59.224041 64.107071,68.367889 
	C60.163681,73.722000 54.029053,75.327614 47.832027,75.775131 
	C41.199116,76.254128 34.510254,75.945496 27.846102,76.010651 
	C24.833681,76.040108 23.770472,74.423058 23.774977,71.611961 
	C23.802748,54.280300 23.755329,36.948475 23.803421,19.616903 
	C23.822680,12.676811 29.246662,15.720022 33.100914,14.995055 
M35.845512,61.429314 
	C35.845512,63.184978 35.845512,64.940643 35.845512,66.989540 
	C39.667721,66.989540 42.959389,67.124458 46.235771,66.958206 
	C51.266006,66.702942 54.495525,63.686249 54.915569,59.130196 
	C55.374275,54.154854 52.841057,50.223114 47.763313,49.420837 
	C43.952538,48.818741 39.970291,49.301903 35.845509,49.301903 
	C35.845509,53.205818 35.845509,56.829620 35.845512,61.429314 
M44.004627,40.001869 
	C49.955528,38.715748 52.797096,35.039700 51.707352,30.037086 
	C50.497917,24.485016 44.503105,22.476997 36.049759,24.719042 
	C36.049759,29.700897 36.049759,34.648537 36.049759,40.003914 
	C38.541828,40.003914 40.832020,40.003914 44.004627,40.001869 
z"/>
<path fill="#FCFCFA" opacity="1.000000" stroke="none" 
	d="
M35.845512,60.941368 
	C35.845509,56.829620 35.845509,53.205818 35.845509,49.301903 
	C39.970291,49.301903 43.952538,48.818741 47.763313,49.420837 
	C52.841057,50.223114 55.374275,54.154854 54.915569,59.130196 
	C54.495525,63.686249 51.266006,66.702942 46.235771,66.958206 
	C42.959389,67.124458 39.667721,66.989540 35.845512,66.989540 
	C35.845512,64.940643 35.845512,63.184978 35.845512,60.941368 
z"/>
<path fill="#FBFBF6" opacity="1.000000" stroke="none" 
	d="
M43.563423,40.002892 
	C40.832020,40.003914 38.541828,40.003914 36.049759,40.003914 
	C36.049759,34.648537 36.049759,29.700897 36.049759,24.719042 
	C44.503105,22.476997 50.497917,24.485016 51.707352,30.037086 
	C52.797096,35.039700 49.955528,38.715748 43.563423,40.002892 
z"/>
</svg>