<svg version="1.1" id="Layer_1" xmlns="http://www.w3.org/2000/svg" xmlns:xlink="http://www.w3.org/1999/xlink" x="0px" y="0px"
	 width="100%" viewBox="0 0 230 100" enable-background="new 0 0 230 100" xml:space="preserve">
<path fill="#020102" opacity="1.000000" stroke="none" 
	d="
M183.000000,101.000000 
	C122.000008,101.000000 61.500015,101.000000 1.000016,101.000000 
	C1.000011,67.666679 1.000011,34.333355 1.000005,1.000025 
	C77.666649,1.000017 154.333298,1.000017 230.999954,1.000008 
	C230.999969,34.333309 230.999969,67.666618 230.999985,100.999962 
	C215.166672,101.000000 199.333328,101.000000 183.000000,101.000000 
M92.512459,33.546124 
	C92.347000,34.180412 92.038063,34.814461 92.036972,35.449028 
	C92.006165,53.437927 91.983360,71.426964 92.053825,89.415611 
	C92.058464,90.601616 92.813393,91.784683 93.633270,93.038277 
	C93.633270,93.038277 94.051781,93.007103 94.608307,93.610733 
	C95.920303,93.742691 97.230919,93.971489 98.544525,93.990135 
	C104.817696,94.079224 104.927475,93.952759 104.930580,87.730499 
	C104.932945,82.991653 104.931053,78.252800 104.931053,72.922096 
	C106.043449,73.601944 106.582268,73.892639 107.080437,74.241386 
	C117.495331,81.532417 129.263214,77.996902 133.553543,66.105225 
	C136.401688,58.210934 136.258102,50.098286 133.756241,42.175568 
	C131.353409,34.566422 125.383087,30.157980 117.517952,31.213818 
	C112.566559,31.878510 107.902298,34.682137 103.312332,36.448097 
	C102.670845,31.513254 101.174812,30.779034 93.584518,32.855034 
	C93.584518,32.855034 93.153252,32.993671 92.512459,33.546124 
M33.418549,15.995494 
	C29.088627,15.995597 24.756014,16.088951 20.429697,15.964110 
	C17.376139,15.875997 15.689381,16.934660 15.694096,20.204334 
	C15.719309,37.690407 15.715453,55.176548 15.694540,72.662628 
	C15.691186,75.467522 16.762350,77.054359 19.796314,77.018715 
	C26.622925,76.938507 33.503620,77.442574 40.258499,76.727814 
	C44.564198,76.272217 49.201874,74.847801 52.790447,72.488487 
	C63.703590,65.313591 61.694061,51.030746 48.853130,43.523464 
	C55.442730,39.964176 57.139301,34.192276 55.659363,27.488819 
	C54.185982,20.815069 49.227425,17.704794 42.789818,16.752468 
	C40.012253,16.341583 37.189171,16.238440 33.418549,15.995494 
M168.961243,65.461746 
	C168.961411,67.956711 169.090912,70.459816 168.934540,72.944931 
	C168.618088,77.974014 172.252945,76.923355 175.066635,76.982430 
	C178.022980,77.044502 181.198456,77.593529 181.004166,72.710594 
	C180.726654,65.735741 180.930283,58.741615 180.934738,51.755730 
	C180.938263,46.255039 185.381683,41.158783 190.290497,41.013897 
	C194.906509,40.877655 197.261536,44.082165 197.361984,51.037865 
	C197.467636,58.354900 197.524719,65.678268 197.332764,72.991768 
	C197.224884,77.101212 199.816391,77.245117 202.570221,76.948074 
	C205.135773,76.671349 209.259415,78.724060 209.268738,73.587608 
	C209.286545,63.778244 209.470734,53.945801 208.878204,44.165817 
	C208.367462,35.735790 202.217667,30.296307 193.756729,31.214077 
	C188.803589,31.751352 184.092972,34.524399 179.444000,36.229061 
	C178.875580,31.985371 178.506989,31.945690 173.087830,31.916426 
	C168.210266,31.890085 168.961304,35.073162 168.961273,38.024723 
	C168.961197,46.840252 168.961243,55.655785 168.961243,65.461746 
M69.066704,34.955929 
	C69.065773,47.431629 69.272865,59.912483 68.963654,72.380539 
	C68.836235,77.518112 71.907509,76.978188 75.100029,77.019051 
	C78.372002,77.060928 81.291924,77.382462 81.140594,72.327873 
	C80.807198,61.192894 81.136826,50.039402 80.952309,38.897499 
	C80.915726,36.688313 79.861992,32.642555 79.151161,32.614269 
	C75.823868,32.481884 72.452454,33.458462 69.066704,34.955929 
M148.771362,77.006203 
	C150.268661,77.006149 151.766266,76.986526 153.263184,77.010361 
	C155.885345,77.052094 157.117889,76.057281 157.089310,73.160789 
	C156.966125,60.684464 157.003906,48.206108 157.052307,35.728760 
	C157.070374,31.073395 153.640411,32.037121 151.031082,32.051826 
	C148.453201,32.066349 145.011246,30.991190 145.039337,35.713387 
	C145.113602,48.190483 144.982681,60.669647 145.186981,73.143837 
	C145.207993,74.427437 146.936813,75.683067 148.771362,77.006203 
M69.855354,15.169565 
	C69.304832,16.339407 68.149818,17.612291 68.328056,18.657907 
	C68.713921,20.921570 69.274170,24.449047 70.681053,24.967201 
	C73.346283,25.948809 76.945305,25.896461 79.583267,24.841103 
	C80.981415,24.281750 81.860245,20.686239 81.770569,18.510952 
	C81.588753,14.100544 77.573502,12.909500 69.855354,15.169565 
M144.850067,16.446020 
	C144.627411,17.572161 144.228821,18.695807 144.212799,19.824881 
	C144.146301,24.510469 145.876495,26.032722 151.053436,26.019361 
	C156.264130,26.005913 158.008621,24.442772 157.945709,19.843538 
	C157.863281,13.815516 152.032120,11.926114 144.850067,16.446020 
z"/>
<path fill="#FCFCF9" opacity="1.000000" stroke="none" 
	d="
M33.902657,15.995495 
	C37.189171,16.238440 40.012253,16.341583 42.789818,16.752468 
	C49.227425,17.704794 54.185982,20.815069 55.659363,27.488819 
	C57.139301,34.192276 55.442730,39.964176 48.853130,43.523464 
	C61.694061,51.030746 63.703590,65.313591 52.790447,72.488487 
	C49.201874,74.847801 44.564198,76.272217 40.258499,76.727814 
	C33.503620,77.442574 26.622925,76.938507 19.796314,77.018715 
	C16.762350,77.054359 15.691186,75.467522 15.694540,72.662628 
	C15.715453,55.176548 15.719309,37.690407 15.694096,20.204334 
	C15.689381,16.934660 17.376139,15.875997 20.429697,15.964110 
	C24.756014,16.088951 29.088627,15.995597 33.902657,15.995495 
M27.927929,51.709770 
	C27.927929,56.982201 27.927929,62.254631 27.927929,67.910133 
	C31.867191,67.910133 35.501060,68.208977 39.064911,67.837006 
	C43.878674,67.334557 46.706158,64.145905 46.826691,59.646217 
	C46.953484,54.912788 44.932995,51.341740 40.081219,50.702747 
	C36.124546,50.181633 32.031532,50.695793 27.927929,51.709770 
M42.286903,37.701717 
	C46.278416,27.947994 41.405415,23.680441 28.125462,25.477139 
	C28.125462,30.495621 28.125462,35.537106 28.125462,42.112350 
	C33.069122,40.769627 37.474964,39.572979 42.286903,37.701717 
z"/>
<path fill="#FCFBF7" opacity="1.000000" stroke="none" 
	d="
M94.038116,32.826420 
	C101.174812,30.779034 102.670845,31.513254 103.312332,36.448097 
	C107.902298,34.682137 112.566559,31.878510 117.517952,31.213818 
	C125.383087,30.157980 131.353409,34.566422 133.756241,42.175568 
	C136.258102,50.098286 136.401688,58.210934 133.553543,66.105225 
	C129.263214,77.996902 117.495331,81.532417 107.080437,74.241386 
	C106.582268,73.892639 106.043449,73.601944 104.931053,72.922096 
	C104.931053,78.252800 104.932945,82.991653 104.930580,87.730499 
	C104.927475,93.952759 104.817696,94.079224 98.544525,93.990135 
	C97.230919,93.971489 95.920303,93.742691 94.317978,92.838699 
	C94.031136,72.319916 94.034630,52.573166 94.038116,32.826420 
M119.349640,65.943588 
	C123.925346,60.551876 123.723885,54.294930 122.257767,48.005184 
	C120.564796,40.742287 114.561142,39.088718 108.633659,43.520096 
	C103.410400,47.424988 105.079628,52.715443 104.975258,57.637299 
	C104.812416,65.316544 111.906448,69.759590 119.349640,65.943588 
z"/>
<path fill="#F6FAF9" opacity="1.000000" stroke="none" 
	d="
M168.961243,64.966530 
	C168.961243,55.655785 168.961197,46.840252 168.961273,38.024723 
	C168.961304,35.073162 168.210266,31.890085 173.087830,31.916426 
	C178.506989,31.945690 178.875580,31.985371 179.444000,36.229061 
	C184.092972,34.524399 188.803589,31.751352 193.756729,31.214077 
	C202.217667,30.296307 208.367462,35.735790 208.878204,44.165817 
	C209.470734,53.945801 209.286545,63.778244 209.268738,73.587608 
	C209.259415,78.724060 205.135773,76.671349 202.570221,76.948074 
	C199.816391,77.245117 197.224884,77.101212 197.332764,72.991768 
	C197.524719,65.678268 197.467636,58.354900 197.361984,51.037865 
	C197.261536,44.082165 194.906509,40.877655 190.290497,41.013897 
	C185.381683,41.158783 180.938263,46.255039 180.934738,51.755730 
	C180.930283,58.741615 180.726654,65.735741 181.004166,72.710594 
	C181.198456,77.593529 178.022980,77.044502 175.066635,76.982430 
	C172.252945,76.923355 168.618088,77.974014 168.934540,72.944931 
	C169.090912,70.459816 168.961411,67.956711 168.961243,64.966530 
z"/>
<path fill="#F5FBF8" opacity="1.000000" stroke="none" 
	d="
M69.081757,34.497375 
	C72.452454,33.458462 75.823868,32.481884 79.151161,32.614269 
	C79.861992,32.642555 80.915726,36.688313 80.952309,38.897499 
	C81.136826,50.039402 80.807198,61.192894 81.140594,72.327873 
	C81.291924,77.382462 78.372002,77.060928 75.100029,77.019051 
	C71.907509,76.978188 68.836235,77.518112 68.963654,72.380539 
	C69.272865,59.912483 69.065773,47.431629 69.081757,34.497375 
z"/>
<path fill="#F5FBF8" opacity="1.000000" stroke="none" 
	d="
M148.322266,76.978943 
	C146.936813,75.683067 145.207993,74.427437 145.186981,73.143837 
	C144.982681,60.669647 145.113602,48.190483 145.039337,35.713387 
	C145.011246,30.991190 148.453201,32.066349 151.031082,32.051826 
	C153.640411,32.037121 157.070374,31.073395 157.052307,35.728760 
	C157.003906,48.206108 156.966125,60.684464 157.089310,73.160789 
	C157.117889,76.057281 155.885345,77.052094 153.263184,77.010361 
	C151.766266,76.986526 150.268661,77.006149 148.322266,76.978943 
z"/>
<path fill="#F2F4F4" opacity="1.000000" stroke="none" 
	d="
M70.224869,14.982979 
	C77.573502,12.909500 81.588753,14.100544 81.770569,18.510952 
	C81.860245,20.686239 80.981415,24.281750 79.583267,24.841103 
	C76.945305,25.896461 73.346283,25.948809 70.681053,24.967201 
	C69.274170,24.449047 68.713921,20.921570 68.328056,18.657907 
	C68.149818,17.612291 69.304832,16.339407 70.224869,14.982979 
z"/>
<path fill="#F2F4F4" opacity="1.000000" stroke="none" 
	d="
M145.052887,16.088875 
	C152.032120,11.926114 157.863281,13.815516 157.945709,19.843538 
	C158.008621,24.442772 156.264130,26.005913 151.053436,26.019361 
	C145.876495,26.032722 144.146301,24.510469 144.212799,19.824881 
	C144.228821,18.695807 144.627411,17.572161 145.052887,16.088875 
z"/>
<path fill="#000065" opacity="1.000000" stroke="none" 
	d="
M93.219330,92.969109 
	C92.813393,91.784683 92.058464,90.601616 92.053825,89.415611 
	C91.983360,71.426964 92.006165,53.437927 92.036972,35.449028 
	C92.038063,34.814461 92.347000,34.180412 92.784851,33.740120 
	C93.111275,53.612450 93.165306,73.290779 93.219330,92.969109 
z"/>
<path fill="#B5FEFF" opacity="1.000000" stroke="none" 
	d="
M93.426300,93.003693 
	C93.165306,73.290779 93.111275,53.612450 93.105255,33.463898 
	C93.153252,32.993671 93.584518,32.855034 93.811317,32.840729 
	C94.034630,52.573166 94.031136,72.319916 94.039711,92.536880 
	C94.051781,93.007103 93.633270,93.038277 93.426300,93.003693 
z"/>
<path fill="#050306" opacity="1.000000" stroke="none" 
	d="
M27.963451,51.230343 
	C32.031532,50.695793 36.124546,50.181633 40.081219,50.702747 
	C44.932995,51.341740 46.953484,54.912788 46.826691,59.646217 
	C46.706158,64.145905 43.878674,67.334557 39.064911,67.837006 
	C35.501060,68.208977 31.867191,67.910133 27.927929,67.910133 
	C27.927929,62.254631 27.927929,56.982201 27.963451,51.230343 
z"/>
<path fill="#050408" opacity="1.000000" stroke="none" 
	d="
M42.083855,38.039024 
	C37.474964,39.572979 33.069122,40.769627 28.125462,42.112350 
	C28.125462,35.537106 28.125462,30.495621 28.125462,25.477139 
	C41.405415,23.680441 46.278416,27.947994 42.083855,38.039024 
z"/>
<path fill="#040306" opacity="1.000000" stroke="none" 
	d="
M119.082336,66.225189 
	C111.906448,69.759590 104.812416,65.316544 104.975258,57.637299 
	C105.079628,52.715443 103.410400,47.424988 108.633659,43.520096 
	C114.561142,39.088718 120.564796,40.742287 122.257767,48.005184 
	C123.723885,54.294930 123.925346,60.551876 119.082336,66.225189 
z"/>
</svg>