<svg version="1.1" id="Layer_1" xmlns="http://www.w3.org/2000/svg" xmlns:xlink="http://www.w3.org/1999/xlink" x="0px" y="0px"
	 width="100%" viewBox="0 0 251 117" enable-background="new 0 0 251 117" xml:space="preserve">
<path fill="#FEFEFE" opacity="1.000000" stroke="none" 
	d="
M152.000000,118.000000 
	C101.333336,118.000000 51.166672,118.000000 1.000007,118.000000 
	C1.000005,79.000008 1.000005,40.000011 1.000002,1.000012 
	C84.666656,1.000008 168.333313,1.000008 251.999969,1.000004 
	C251.999985,39.999989 251.999985,78.999977 252.000000,117.999985 
	C218.833328,118.000000 185.666672,118.000000 152.000000,118.000000 
M94.578369,85.457886 
	C94.713837,72.350769 94.863571,59.243748 94.947899,46.136307 
	C94.952759,45.381989 94.424950,44.624245 93.840897,43.371414 
	C93.491508,43.240658 93.142120,43.109901 92.194504,42.448154 
	C89.895195,42.319878 87.507515,41.770107 85.330772,42.226463 
	C84.088799,42.486843 82.296196,44.372082 82.275452,45.552467 
	C82.054001,58.153809 82.054466,70.761948 82.271095,83.363449 
	C82.291924,84.574883 84.070251,86.627342 85.220299,86.769257 
	C87.721725,87.077950 90.344345,86.404594 93.428207,86.122597 
	C93.592308,86.077072 93.756401,86.031555 94.578369,85.457886 
M181.324478,44.542900 
	C181.217072,56.983906 181.087875,69.424828 181.040451,81.866066 
	C181.036301,82.952599 181.569534,84.041183 182.129639,85.610008 
	C182.446198,85.768471 182.762741,85.926941 183.650925,86.658028 
	C184.972488,86.774193 186.296463,86.868195 187.615189,87.010559 
	C192.079849,87.492554 194.382736,86.248405 193.971024,81.015778 
	C193.476166,74.726479 193.851898,68.368507 193.854599,62.040264 
	C193.857162,56.007278 198.147781,51.059578 203.416260,51.007931 
	C208.146927,50.961559 210.459106,54.249489 210.558487,61.538631 
	C210.656113,68.698212 210.729996,75.864487 210.523224,83.019402 
	C210.402466,87.197502 213.084702,87.124527 215.789856,86.960014 
	C218.468460,86.797119 222.290512,88.307259 222.228882,83.217644 
	C222.113953,73.728531 222.377304,64.221680 221.878082,54.754128 
	C221.392975,45.554585 214.179062,39.566452 205.214523,41.222191 
	C200.717392,42.052803 196.588852,44.879093 192.483429,46.717827 
	C191.837097,40.571053 189.824127,41.410824 182.529480,43.003304 
	C182.304031,43.292583 182.078598,43.581860 181.324478,44.542900 
M169.840897,43.371414 
	C169.491516,43.240665 169.142151,43.109917 168.194534,42.448174 
	C165.895218,42.319885 163.507553,41.770119 161.330811,42.226467 
	C160.088821,42.486851 158.296188,44.372066 158.275452,45.552444 
	C158.053986,58.153805 158.054459,70.761963 158.271103,83.363480 
	C158.291931,84.574898 160.070282,86.627350 161.220337,86.769257 
	C163.721771,87.077950 166.344376,86.404587 169.428223,86.122589 
	C169.592316,86.077072 169.756409,86.031555 170.578354,85.457878 
	C170.713821,72.350761 170.863541,59.243732 170.947876,46.136288 
	C170.952728,45.381973 170.424942,44.624233 169.840897,43.371414 
M106.129509,102.586761 
	C106.444962,102.708298 106.760414,102.829834 107.688522,103.482605 
	C108.826378,103.657501 109.960670,103.953674 111.102669,103.987167 
	C117.459511,104.173676 117.854317,103.774612 117.856216,97.528046 
	C117.857651,92.801987 117.856499,88.075920 117.856499,82.851898 
	C119.041115,83.542488 119.601257,83.821350 120.111000,84.173225 
	C130.829285,91.572098 142.667877,87.791847 146.724930,75.447006 
	C149.227859,67.831078 149.129272,59.993340 146.726196,52.376575 
	C143.995377,43.721043 135.946487,39.033127 127.596924,41.492039 
	C123.606468,42.667213 120.026344,45.235741 116.403770,47.099392 
	C115.689766,40.659969 114.082909,41.364780 106.529198,43.004623 
	C106.304192,43.292912 106.079185,43.581200 105.325226,44.541492 
	C105.233147,63.147251 105.133598,81.752983 105.083199,100.358856 
	C105.081604,100.948692 105.585777,101.539902 106.129509,102.586761 
M69.069038,58.483253 
	C66.696678,56.814175 64.324318,55.145096 61.857616,53.409645 
	C68.271164,49.977802 69.990097,44.366291 68.641487,37.754002 
	C67.320633,31.277782 62.708389,27.659559 56.431309,27.039482 
	C48.520493,26.258018 40.525860,26.118727 32.571850,26.191305 
	C31.299360,26.202915 28.973438,28.753582 28.953680,30.156084 
	C28.705225,47.793156 28.716421,65.435905 28.943419,83.073570 
	C28.960440,84.395988 31.131714,86.819046 32.300011,86.818100 
	C40.921848,86.811127 49.708618,87.252716 58.126900,85.763504 
	C71.418221,83.412247 76.501434,70.525391 69.069038,58.483253 
M85.145996,24.209274 
	C80.604767,25.656796 80.614883,29.228735 81.734047,32.687763 
	C83.194656,37.202145 87.298187,36.187855 90.613335,35.802822 
	C94.380623,35.365280 95.156944,32.450859 94.865700,29.138216 
	C94.340797,23.167824 89.893921,24.051010 85.145996,24.209274 
M157.914978,33.504536 
	C160.269745,34.342415 162.582428,35.707321 164.988754,35.899498 
	C168.990921,36.219120 170.978958,33.990421 170.923080,29.787859 
	C170.869476,25.755196 168.795670,24.194618 165.085342,23.969797 
	C158.594421,23.576494 156.764969,25.705687 157.914978,33.504536 
z"/>
<path fill="#020306" opacity="1.000000" stroke="none" 
	d="
M69.292694,58.779640 
	C76.501434,70.525391 71.418221,83.412247 58.126900,85.763504 
	C49.708618,87.252716 40.921848,86.811127 32.300011,86.818100 
	C31.131714,86.819046 28.960440,84.395988 28.943419,83.073570 
	C28.716421,65.435905 28.705225,47.793156 28.953680,30.156084 
	C28.973438,28.753582 31.299360,26.202915 32.571850,26.191305 
	C40.525860,26.118727 48.520493,26.258018 56.431309,27.039482 
	C62.708389,27.659559 67.320633,31.277782 68.641487,37.754002 
	C69.990097,44.366291 68.271164,49.977802 61.857616,53.409645 
	C64.324318,55.145096 66.696678,56.814175 69.292694,58.779640 
M58.142681,63.483517 
	C53.121326,58.211918 46.870598,60.481552 41.009323,60.016205 
	C41.009323,66.291763 41.009323,71.900253 41.009323,77.999794 
	C43.773895,77.999794 46.383396,78.011841 48.992756,77.997627 
	C58.394161,77.946419 61.901833,72.888092 58.142681,63.483517 
M56.783089,44.149338 
	C56.545090,35.918980 52.284256,33.578968 41.086761,35.548210 
	C41.086761,40.584469 41.086761,45.622173 41.086761,50.627975 
	C51.956642,51.734440 54.000496,50.966019 56.783089,44.149338 
z"/>
<path fill="#030408" opacity="1.000000" stroke="none" 
	d="
M107.077133,42.915207 
	C114.082909,41.364780 115.689766,40.659969 116.403770,47.099392 
	C120.026344,45.235741 123.606468,42.667213 127.596924,41.492039 
	C135.946487,39.033127 143.995377,43.721043 146.726196,52.376575 
	C149.129272,59.993340 149.227859,67.831078 146.724930,75.447006 
	C142.667877,87.791847 130.829285,91.572098 120.111000,84.173225 
	C119.601257,83.821350 119.041115,83.542488 117.856499,82.851898 
	C117.856499,88.075920 117.857651,92.801987 117.856216,97.528046 
	C117.854317,103.774612 117.459511,104.173676 111.102669,103.987167 
	C109.960670,103.953674 108.826378,103.657501 107.363060,102.750610 
	C107.050774,82.317482 107.063957,62.616344 107.077133,42.915207 
M125.183113,77.732094 
	C130.464798,78.960220 133.972656,76.299355 134.861893,71.640587 
	C135.765503,66.906395 135.930939,61.702744 134.942383,57.016281 
	C133.603104,50.667061 127.354050,49.141670 122.120621,53.162037 
	C114.674622,58.882107 115.968880,71.991295 125.183113,77.732094 
z"/>
<path fill="#020407" opacity="1.000000" stroke="none" 
	d="
M183.079224,42.914642 
	C189.824127,41.410824 191.837097,40.571053 192.483429,46.717827 
	C196.588852,44.879093 200.717392,42.052803 205.214523,41.222191 
	C214.179062,39.566452 221.392975,45.554585 221.878082,54.754128 
	C222.377304,64.221680 222.113953,73.728531 222.228882,83.217644 
	C222.290512,88.307259 218.468460,86.797119 215.789856,86.960014 
	C213.084702,87.124527 210.402466,87.197502 210.523224,83.019402 
	C210.729996,75.864487 210.656113,68.698212 210.558487,61.538631 
	C210.459106,54.249489 208.146927,50.961559 203.416260,51.007931 
	C198.147781,51.059578 193.857162,56.007278 193.854599,62.040264 
	C193.851898,68.368507 193.476166,74.726479 193.971024,81.015778 
	C194.382736,86.248405 192.079849,87.492554 187.615189,87.010559 
	C186.296463,86.868195 184.972488,86.774193 183.345947,85.894882 
	C183.053711,71.059380 183.066467,56.987011 183.079224,42.914642 
z"/>
<path fill="#0D0601" opacity="1.000000" stroke="none" 
	d="
M92.917427,86.132652 
	C90.344345,86.404594 87.721725,87.077950 85.220299,86.769257 
	C84.070251,86.627342 82.291924,84.574883 82.271095,83.363449 
	C82.054466,70.761948 82.054001,58.153809 82.275452,45.552467 
	C82.296196,44.372082 84.088799,42.486843 85.330772,42.226463 
	C87.507515,41.770107 89.895195,42.319878 92.559166,43.184769 
	C92.921692,57.991802 92.919563,72.062225 92.917427,86.132652 
z"/>
<path fill="#0D0601" opacity="1.000000" stroke="none" 
	d="
M168.917465,86.132629 
	C166.344376,86.404587 163.721771,87.077950 161.220337,86.769257 
	C160.070282,86.627350 158.291931,84.574898 158.271103,83.363480 
	C158.054459,70.761963 158.053986,58.153805 158.275452,45.552444 
	C158.296188,44.372066 160.088821,42.486851 161.330811,42.226467 
	C163.507553,41.770119 165.895218,42.319885 168.559174,43.184792 
	C168.921707,57.991817 168.919586,72.062225 168.917465,86.132629 
z"/>
<path fill="#0A0C0D" opacity="1.000000" stroke="none" 
	d="
M85.549973,24.132509 
	C89.893921,24.051010 94.340797,23.167824 94.865700,29.138216 
	C95.156944,32.450859 94.380623,35.365280 90.613335,35.802822 
	C87.298187,36.187855 83.194656,37.202145 81.734047,32.687763 
	C80.614883,29.228735 80.604767,25.656796 85.549973,24.132509 
z"/>
<path fill="#0A0C0D" opacity="1.000000" stroke="none" 
	d="
M157.786682,33.125679 
	C156.764969,25.705687 158.594421,23.576494 165.085342,23.969797 
	C168.795670,24.194618 170.869476,25.755196 170.923080,29.787859 
	C170.978958,33.990421 168.990921,36.219120 164.988754,35.899498 
	C162.582428,35.707321 160.269745,34.342415 157.786682,33.125679 
z"/>
<path fill="#670200" opacity="1.000000" stroke="none" 
	d="
M106.803162,42.959915 
	C107.063957,62.616344 107.050774,82.317482 107.056732,102.485001 
	C106.760414,102.829834 106.444962,102.708298 106.055206,101.879150 
	C105.938667,82.070854 105.896423,62.970169 105.854179,43.869484 
	C106.079185,43.581200 106.304192,43.292912 106.803162,42.959915 
z"/>
<path fill="#FFFFB6" opacity="1.000000" stroke="none" 
	d="
M105.589706,44.205490 
	C105.896423,62.970169 105.938667,82.070854 105.917542,101.651001 
	C105.585777,101.539902 105.081604,100.948692 105.083199,100.358856 
	C105.133598,81.752983 105.233147,63.147251 105.589706,44.205490 
z"/>
<path fill="#000167" opacity="1.000000" stroke="none" 
	d="
M169.172852,86.127609 
	C168.919586,72.062225 168.921707,57.991817 168.858307,43.450287 
	C169.142151,43.109917 169.491516,43.240665 169.929565,44.099373 
	C169.985657,58.546902 169.953079,72.266472 169.920502,85.986038 
	C169.756409,86.031555 169.592316,86.077072 169.172852,86.127609 
z"/>
<path fill="#680300" opacity="1.000000" stroke="none" 
	d="
M182.804352,42.958973 
	C183.066467,56.987011 183.053711,71.059380 183.060120,85.608574 
	C182.762741,85.926941 182.446198,85.768471 182.054688,84.890121 
	C181.937561,70.737206 181.895370,57.304173 181.853165,43.871140 
	C182.078598,43.581860 182.304031,43.292583 182.804352,42.958973 
z"/>
<path fill="#000167" opacity="1.000000" stroke="none" 
	d="
M93.172821,86.127625 
	C92.919563,72.062225 92.921692,57.991802 92.858276,43.450260 
	C93.142120,43.109901 93.491508,43.240658 93.929565,44.099380 
	C93.985649,58.546909 93.953079,72.266472 93.920502,85.986038 
	C93.756401,86.031555 93.592308,86.077072 93.172821,86.127625 
z"/>
<path fill="#B6FFFF" opacity="1.000000" stroke="none" 
	d="
M94.249435,85.721962 
	C93.953079,72.266472 93.985649,58.546909 94.081635,44.347725 
	C94.424950,44.624245 94.952759,45.381989 94.947899,46.136307 
	C94.863571,59.243748 94.713837,72.350769 94.249435,85.721962 
z"/>
<path fill="#B6FFFF" opacity="1.000000" stroke="none" 
	d="
M170.249420,85.721954 
	C169.953079,72.266472 169.985657,58.546902 170.081635,44.347710 
	C170.424942,44.624233 170.952728,45.381973 170.947876,46.136288 
	C170.863541,59.243732 170.713821,72.350761 170.249420,85.721954 
z"/>
<path fill="#FFFFB6" opacity="1.000000" stroke="none" 
	d="
M181.588821,44.207024 
	C181.895370,57.304173 181.937561,70.737206 181.916458,84.649521 
	C181.569534,84.041183 181.036301,82.952599 181.040451,81.866066 
	C181.087875,69.424828 181.217072,56.983906 181.588821,44.207024 
z"/>
<path fill="#FCFCFA" opacity="1.000000" stroke="none" 
	d="
M58.391685,63.789772 
	C61.901833,72.888092 58.394161,77.946419 48.992756,77.997627 
	C46.383396,78.011841 43.773895,77.999794 41.009323,77.999794 
	C41.009323,71.900253 41.009323,66.291763 41.009323,60.016205 
	C46.870598,60.481552 53.121326,58.211918 58.391685,63.789772 
z"/>
<path fill="#FBFBF6" opacity="1.000000" stroke="none" 
	d="
M56.695747,44.529671 
	C54.000496,50.966019 51.956642,51.734440 41.086761,50.627975 
	C41.086761,45.622173 41.086761,40.584469 41.086761,35.548210 
	C52.284256,33.578968 56.545090,35.918980 56.695747,44.529671 
z"/>
<path fill="#FBFCF9" opacity="1.000000" stroke="none" 
	d="
M124.845291,77.534981 
	C115.968880,71.991295 114.674622,58.882107 122.120621,53.162037 
	C127.354050,49.141670 133.603104,50.667061 134.942383,57.016281 
	C135.930939,61.702744 135.765503,66.906395 134.861893,71.640587 
	C133.972656,76.299355 130.464798,78.960220 124.845291,77.534981 
z"/>
</svg>